<?xml version="1.0" encoding="UTF-8"?>
<svg version="1.1" xmlns="http://www.w3.org/2000/svg" width="492" height="270">
<path d="M0 0 C162.36 0 324.72 0 492 0 C492 89.1 492 178.2 492 270 C329.64 270 167.28 270 0 270 C0 180.9 0 91.8 0 0 Z " fill="#F6F6F6" transform="translate(0,0)"/>
<path d="M0 0 C0.66 0 1.32 0 2 0 C2.39155273 0.76328613 2.78310547 1.52657227 3.18652344 2.31298828 C12.93988617 21.3165688 12.93988617 21.3165688 23.0625 40.125 C28.21501279 49.4735554 33.1549475 58.92429134 38.03979492 68.41479492 C40.53958334 73.26898201 43.04134244 78.11711067 45.6640625 82.90625 C46.23592285 83.95244507 46.23592285 83.95244507 46.81933594 85.01977539 C47.78629171 86.77635208 48.76371884 88.52715398 49.7421875 90.27734375 C51 93 51 93 51 97 C17.67 97 -15.66 97 -50 97 C-49.24296286 93.21481429 -48.80808192 91.248817 -47.1015625 88.05859375 C-46.7101709 87.32036377 -46.3187793 86.58213379 -45.91552734 85.8215332 C-45.48965332 85.03480225 -45.0637793 84.24807129 -44.625 83.4375 C-44.18236816 82.60758545 -43.73973633 81.7776709 -43.28369141 80.92260742 C-39.62882206 74.0951885 -35.89759107 67.30796143 -32.10791016 60.55444336 C-29.35116564 55.60235661 -26.76855858 50.5767268 -24.25 45.5 C-20.23470756 37.40759521 -16.05195702 29.41011712 -11.81591797 21.43139648 C-10.60250059 19.14510719 -9.39289724 16.85682688 -8.18359375 14.56835938 C-7.40647114 13.10144533 -6.62913577 11.63464397 -5.8515625 10.16796875 C-5.49325348 9.48993698 -5.13494446 8.81190521 -4.76577759 8.11332703 C-3.27775356 5.31512036 -1.75984772 2.63977158 0 0 Z " fill="#414041" transform="translate(280,97)"/>
<path d="M0 0 C6.27 0 12.54 0 19 0 C19.33 21.12 19.66 42.24 20 64 C21.98 64 23.96 64 26 64 C27.06709042 60.79872874 27.15673203 58.42642377 27.20532227 55.05981445 C27.22526749 53.83877518 27.24521271 52.6177359 27.26576233 51.35969543 C27.28247482 50.04087875 27.29918732 48.72206207 27.31640625 47.36328125 C27.3369826 45.99992756 27.35797925 44.63658015 27.37937927 43.27323914 C27.4345297 39.68778578 27.48396987 36.10227552 27.53222656 32.51672363 C27.58249299 28.8568008 27.63815219 25.19696043 27.69335938 21.53710938 C27.80085497 14.35814085 27.90182045 7.17910308 28 0 C34.27 0 40.54 0 47 0 C47 26.4 47 52.8 47 80 C40.73 80 34.46 80 28 80 C27.67 77.69 27.34 75.38 27 73 C26.3503125 74.175625 26.3503125 74.175625 25.6875 75.375 C24 78 24 78 21 80 C18.0390625 80.3359375 18.0390625 80.3359375 14.625 80.375 C13.50351563 80.40335937 12.38203125 80.43171875 11.2265625 80.4609375 C7.19951934 79.88564562 5.74783262 78.99334344 3 76 C-0.87612026 68.41793346 -0.38369379 60.64818806 -0.29296875 52.34375 C-0.2873649 50.8306114 -0.28309854 49.31746731 -0.28010559 47.80432129 C-0.26871877 43.84554693 -0.23930579 39.88710926 -0.20599365 35.9284668 C-0.17515886 31.87944084 -0.16157176 27.83035983 -0.14648438 23.78125 C-0.11442915 15.85399588 -0.06171273 7.92707877 0 0 Z " fill="#353535" transform="translate(96,112)"/>
<path d="M0 0 C5.61 0 11.22 0 17 0 C18.26086667 3.78260002 18.53148281 7.53451324 18.90234375 11.48046875 C19.02628258 12.74894402 19.02628258 12.74894402 19.15272522 14.04304504 C19.41761138 16.75755558 19.67792785 19.47247655 19.9375 22.1875 C21.11915005 34.48450087 22.385062 46.75131639 24 59 C24.06041977 58.37883301 24.12083954 57.75766602 24.18309021 57.11767578 C24.81451736 50.6282899 25.44747264 44.13905434 26.08129883 37.64990234 C26.31736477 35.23099495 26.55304651 32.81205003 26.78833008 30.39306641 C27.12739668 26.90777713 27.46786371 23.422627 27.80859375 19.9375 C27.91280136 18.86322754 28.01700897 17.78895508 28.12437439 16.68212891 C28.22440262 15.6616748 28.32443085 14.6412207 28.42749023 13.58984375 C28.51409409 12.70159912 28.60069794 11.81335449 28.68992615 10.89819336 C29.07916394 7.26007178 29.54617125 3.63062999 30 0 C35.94 0 41.88 0 48 0 C47.30528727 7.0951015 46.54369413 14.17929128 45.73046875 21.26171875 C45.60941772 22.31931396 45.4883667 23.37690918 45.36364746 24.46655273 C40.9956765 62.55559414 40.9956765 62.55559414 38.6875 80.6875 C38.44906372 82.58858521 38.44906372 82.58858521 38.20581055 84.52807617 C38.05926025 85.65705322 37.91270996 86.78603027 37.76171875 87.94921875 C37.63756592 88.91174561 37.51341309 89.87427246 37.38549805 90.8659668 C37 93 37 93 36 94 C34.15840977 94.09959621 32.31303033 94.13080411 30.46875 94.1328125 C29.34855469 94.13410156 28.22835937 94.13539063 27.07421875 94.13671875 C25.89472656 94.13285156 24.71523437 94.12898438 23.5 94.125 C21.73076172 94.13080078 21.73076172 94.13080078 19.92578125 94.13671875 C18.80558594 94.13542969 17.68539062 94.13414062 16.53125 94.1328125 C15.49548828 94.13168457 14.45972656 94.13055664 13.39257812 94.12939453 C11 94 11 94 10 93 C9.59999118 90.18305536 9.25718035 87.37824995 8.94921875 84.55078125 C8.80100426 83.24212349 8.80100426 83.24212349 8.64979553 81.9070282 C8.43670025 80.02423445 8.22542292 78.14123426 8.01574707 76.25805664 C7.46698301 71.33366957 6.90445396 66.4108736 6.33984375 61.48828125 C6.22722198 60.50562286 6.11460022 59.52296448 5.99856567 58.51052856 C4.87772005 48.80726554 3.60286649 39.12873828 2.2565918 29.4543457 C0.89791435 19.61457704 -0.16297431 9.94143319 0 0 Z " fill="#353535" transform="translate(41,98)"/>
<path d="M0 0 C4.94983746 3.17907971 7.58307596 6.85500147 9.8671875 12.19921875 C10.20776367 15.35888672 10.20776367 15.35888672 10.16015625 18.69140625 C10.14891724 20.31344971 10.14891724 20.31344971 10.13745117 21.96826172 C10.11013916 23.32322754 10.08282715 24.67819336 10.0546875 26.07421875 C9.9928125 30.40546875 9.9309375 34.73671875 9.8671875 39.19921875 C0.6271875 39.19921875 -8.6128125 39.19921875 -18.1328125 39.19921875 C-18.0090625 42.60234375 -17.8853125 46.00546875 -17.7578125 49.51171875 C-17.72381348 50.58075439 -17.68981445 51.64979004 -17.65478516 52.7512207 C-17.6191748 53.59644287 -17.58356445 54.44166504 -17.546875 55.3125 C-17.49974365 56.60861206 -17.49974365 56.60861206 -17.45166016 57.9309082 C-17.26093213 60.4766432 -17.26093213 60.4766432 -15.1328125 63.19921875 C-12.6578125 62.70421875 -12.6578125 62.70421875 -10.1328125 62.19921875 C-9.8028125 57.24921875 -9.4728125 52.29921875 -9.1328125 47.19921875 C-2.8628125 47.19921875 3.4071875 47.19921875 9.8671875 47.19921875 C10.2183403 56.32919151 9.95187541 64.63444727 4.1796875 72.13671875 C-1.16195197 77.64731518 -6.63723592 78.37401638 -14.1328125 78.57421875 C-20.64825206 78.39323432 -26.05194924 78.20409659 -30.875 73.5 C-36.99379612 66.04912147 -37.44674757 57.92751844 -37.46875 48.63671875 C-37.4754068 47.64599365 -37.4820636 46.65526855 -37.48892212 45.63452148 C-37.4989984 43.55031172 -37.50374071 41.46607003 -37.50341797 39.38183594 C-37.50779976 36.20844192 -37.54419717 33.03643063 -37.58203125 29.86328125 C-37.58789889 27.8294318 -37.59186864 25.7955758 -37.59375 23.76171875 C-37.60812103 22.82191162 -37.62249207 21.88210449 -37.63729858 20.91381836 C-37.58887125 13.87370388 -36.0076287 8.59911553 -31.421875 3.17578125 C-30.87273437 2.72976562 -30.32359375 2.28375 -29.7578125 1.82421875 C-29.21382812 1.36273438 -28.66984375 0.90125 -28.109375 0.42578125 C-19.80937366 -4.72481247 -8.51140839 -4.44276812 0 0 Z " fill="#363636" transform="translate(212.1328125,113.80078125)"/>
<path d="M0 0 C4.19356905 2.37476732 6.52147088 4.57671209 8.07394409 9.19422913 C8.98033571 12.91918654 9.24172232 16.03133565 9.22705078 19.85327148 C9.22734283 20.49802933 9.22763489 21.14278717 9.22793579 21.80708313 C9.22655626 23.91189626 9.21106128 26.01634342 9.1953125 28.12109375 C9.19157745 29.59082343 9.1887328 31.06055562 9.18673706 32.5302887 C9.1791393 36.37884523 9.15952447 40.22724829 9.1373291 44.07574463 C9.11678708 48.01076177 9.10771755 51.94580395 9.09765625 55.88085938 C9.07627448 63.5873173 9.04112433 71.2936175 9 79 C3.06 79 -2.88 79 -9 79 C-9.02505615 77.13230957 -9.0501123 75.26461914 -9.07592773 73.34033203 C-9.15973805 67.17757208 -9.24800761 61.0148887 -9.33933926 54.85223579 C-9.39456319 51.11489964 -9.44798232 47.37755565 -9.49731445 43.64013672 C-9.54496587 40.03503385 -9.59730892 36.43002715 -9.65294075 32.82503891 C-9.67336079 31.44791933 -9.69207447 30.07077338 -9.70907402 28.69360733 C-9.73312547 26.768496 -9.76374251 24.84347005 -9.79467773 22.91845703 C-9.81022202 21.82147491 -9.8257663 20.7244928 -9.84178162 19.5942688 C-9.82896195 17.01546248 -9.82896195 17.01546248 -11 15 C-12.98 15 -14.96 15 -17 15 C-18.06709042 18.20127126 -18.15673203 20.57357623 -18.20532227 23.94018555 C-18.22526749 25.16122482 -18.24521271 26.3822641 -18.26576233 27.64030457 C-18.29083107 29.61852959 -18.29083107 29.61852959 -18.31640625 31.63671875 C-18.3369826 33.00007244 -18.35797925 34.36341985 -18.37937927 35.72676086 C-18.4345297 39.31221422 -18.48396987 42.89772448 -18.53222656 46.48327637 C-18.58249299 50.1431992 -18.63815219 53.80303957 -18.69335938 57.46289062 C-18.80085497 64.64185915 -18.90182045 71.82089692 -19 79 C-24.94 79 -30.88 79 -37 79 C-37 52.93 -37 26.86 -37 0 C-31.06 0 -25.12 0 -19 0 C-18.67 2.64 -18.34 5.28 -18 8 C-17.62875 7.071875 -17.2575 6.14375 -16.875 5.1875 C-12.97801691 -1.43737125 -6.91347279 -2.14845769 0 0 Z " fill="#343434" transform="translate(417,112)"/>
<path d="M0 0 C6.6 0 13.2 0 20 0 C20 31.35 20 62.7 20 95 C13.4 95 6.8 95 0 95 C0 63.65 0 32.3 0 0 Z " fill="#3A3A3A" transform="translate(149,97)"/>
<path d="M0 0 C0.02685095 2.47923801 0.04676547 4.9581884 0.0625 7.4375 C0.07087891 8.14455078 0.07925781 8.85160156 0.08789062 9.58007812 C0.09653588 11.38693559 0.05220011 13.19387603 0 15 C-3.14466038 18.14466038 -8.61328788 17.26888131 -13 18 C-13 38.46 -13 58.92 -13 80 C-19.27 80 -25.54 80 -32 80 C-32 53.93 -32 27.86 -32 1 C-25.73 1 -19.46 1 -13 1 C-12.67 2.65 -12.34 4.3 -12 6 C-11.05125 5.195625 -10.1025 4.39125 -9.125 3.5625 C-5.81728294 0.75813119 -4.57427478 0 0 0 Z " fill="#363637" transform="translate(372,111)"/>
<path d="M0 0 C0.66 0 1.32 0 2 0 C2.47421387 0.92337158 2.94842773 1.84674316 3.43701172 2.7980957 C5.19821667 6.22627744 6.96178812 9.65323707 8.72607422 13.07983398 C9.48908985 14.56257473 10.25146478 16.04564537 11.01318359 17.52905273 C12.10866393 19.66216861 13.20644886 21.79408445 14.3046875 23.92578125 C14.6443454 24.58838455 14.9840033 25.25098785 15.33395386 25.93367004 C16.77758543 28.73100421 18.25144272 31.37716408 20 34 C19.72699062 38.8800427 17.99769669 42.17445092 15.5 46.3125 C14.77866452 47.52841781 14.06003885 48.74594619 13.34375 49.96484375 C12.96476562 50.60921387 12.58578125 51.25358398 12.1953125 51.91748047 C10.03313069 55.684517 8.01989183 59.5303379 6 63.375 C5.60232422 64.13079346 5.20464844 64.88658691 4.79492188 65.6652832 C3.86134065 67.44250408 2.93037088 69.22109641 2 71 C-1 70 -1 70 -2.38671875 67.78515625 C-2.81597656 66.88667969 -3.24523437 65.98820312 -3.6875 65.0625 C-4.12449219 64.16660156 -4.56148438 63.27070313 -5.01171875 62.34765625 C-6 60 -6 60 -6 58 C-6.66 58 -7.32 58 -8 58 C-10.66666667 52.66666667 -13.33333333 47.33333333 -16 42 C-16.37479492 41.31091553 -16.74958984 40.62183105 -17.13574219 39.91186523 C-18.34288617 37.24148543 -17.84873507 35.76481878 -17 33 C-15.9140625 30.82421875 -15.9140625 30.82421875 -14.625 28.6875 C-12.97413979 25.83387021 -11.58145705 23.11385046 -10.5 20 C-8.86712502 15.35968296 -6.46828756 11.24000317 -4 7 C-3.22853059 5.64619561 -2.45763511 4.29206388 -1.6875 2.9375 C-1.130625 1.968125 -0.57375 0.99875 0 0 Z " fill="#F2F2F2" transform="translate(280,111)"/>
<path d="M0 0 C4.64461661 2.36244697 5.7224669 5.72806104 7.7890625 10.359375 C8.64309505 12.17118086 9.50133818 13.98100658 10.36328125 15.7890625 C10.8123584 16.73749023 11.26143555 17.68591797 11.72412109 18.66308594 C14.18292157 23.6940802 16.89254109 28.58485259 19.6015625 33.484375 C21.46303125 36.8554459 23.31928418 40.22914031 25.1640625 43.609375 C25.77378906 44.72570312 26.38351562 45.84203125 27.01171875 46.9921875 C28.1640625 49.609375 28.1640625 49.609375 28.1640625 53.609375 C-5.1659375 53.609375 -38.4959375 53.609375 -72.8359375 53.609375 C-72.5059375 52.619375 -72.1759375 51.629375 -71.8359375 50.609375 C-71.8359375 51.269375 -71.8359375 51.929375 -71.8359375 52.609375 C-60.41391403 52.50193646 -48.99195464 52.38931584 -37.57004833 52.27003574 C-32.26669085 52.21481604 -26.96332784 52.16139749 -21.65991211 52.11206055 C-16.54408725 52.06440304 -11.42833004 52.01205961 -6.31258583 51.95643425 C-4.3585306 51.936017 -2.40445682 51.91730288 -0.45036888 51.90030098 C2.28160953 51.87624311 5.01345994 51.84619031 7.74536133 51.81469727 C8.55744049 51.8089418 9.36951965 51.80318634 10.20620728 51.79725647 C13.44321261 51.75469972 16.07178562 51.64013396 19.1640625 50.609375 C18.8340625 49.949375 18.5040625 49.289375 18.1640625 48.609375 C6.9440625 48.279375 -4.2759375 47.949375 -15.8359375 47.609375 C-16.74292789 43.07442303 -16.62777501 40.96448132 -15.8359375 36.609375 C-16.1659375 36.279375 -16.4959375 35.949375 -16.8359375 35.609375 C-16.8359375 32.19577272 -16.08380213 30.81462566 -14.5 27.828125 C-13.76910156 26.44173828 -13.76910156 26.44173828 -13.0234375 25.02734375 C-12.5078125 24.06441406 -11.9921875 23.10148437 -11.4609375 22.109375 C-10.69910156 20.66498047 -10.69910156 20.66498047 -9.921875 19.19140625 C-7.99959465 15.56436674 -6.11447931 12.02718771 -3.8359375 8.609375 C-3.80844272 6.54026907 -3.80844272 6.54026907 -4.2109375 4.421875 C-4.5203125 2.5346875 -4.5203125 2.5346875 -4.8359375 0.609375 C-2.8359375 -0.390625 -2.8359375 -0.390625 0 0 Z " fill="#3E3E3E" transform="translate(302.8359375,140.390625)"/>
<path d="M0 0 C4.36953738 1.50391138 5.57732013 4.28534653 7.671875 8.25 C7.99915588 8.86391602 8.32643677 9.47783203 8.66363525 10.11035156 C9.35126512 11.40537203 10.03342959 12.70330744 10.71044922 14.00390625 C11.74936732 15.99878516 12.80471248 17.98424056 13.86328125 19.96875 C19 29.68114486 19 29.68114486 19 32 C7.45 32 -4.1 32 -16 32 C-14.58145352 27.74436056 -13.3656254 24.55756436 -11.25 20.7421875 C-10.7240625 19.78699219 -10.198125 18.83179688 -9.65625 17.84765625 C-9.1096875 16.86667969 -8.563125 15.88570312 -8 14.875 C-6.91614652 12.91434995 -5.83279323 10.95342328 -4.75 8.9921875 C-4.27046875 8.12964355 -3.7909375 7.26709961 -3.296875 6.37841797 C-2.14891628 4.27310663 -1.05604646 2.1525664 0 0 Z " fill="#F0F0F0" transform="translate(256,155)"/>
<path d="M0 0 C0.66 0 1.32 0 2 0 C6.39033252 7.47290642 10.60617731 15.00475559 14.5 22.75 C14.84998047 23.4409375 15.19996094 24.131875 15.56054688 24.84375 C18 29.75210639 18 29.75210639 18 32 C6.78 32 -4.44 32 -16 32 C-15.12224938 27.61124689 -14.22272176 25.18454917 -12.12890625 21.3671875 C-11.55462891 20.31402344 -10.98035156 19.26085937 -10.38867188 18.17578125 C-9.78603516 17.08652344 -9.18339844 15.99726563 -8.5625 14.875 C-7.96373047 13.77800781 -7.36496094 12.68101562 -6.74804688 11.55078125 C-2.3561747 3.53426205 -2.3561747 3.53426205 0 0 Z " fill="#F1F1F1" transform="translate(303,155)"/>
<path d="M0 0 C1 3 1 3 0 13 C11.22 13.33 22.44 13.66 34 14 C34.495 15.485 34.495 15.485 35 17 C31.15661479 19.56225681 28.03380894 19.26647551 23.58129883 19.22705078 C22.72254654 19.22734283 21.86379425 19.22763489 20.97901917 19.22793579 C18.13825403 19.22654155 15.29775061 19.2109759 12.45703125 19.1953125 C10.48833866 19.19158271 8.51964421 19.18873558 6.5509491 19.18673706 C1.36743044 19.17909796 -3.81597628 19.15944707 -8.99945068 19.1373291 C-14.28802984 19.11687665 -19.57662707 19.10773663 -24.86523438 19.09765625 C-35.24353879 19.07620147 -45.62176009 19.04206215 -56 19 C-55.34 17.68 -54.68 16.36 -54 15 C-53.13375 15.2784375 -53.13375 15.2784375 -52.25 15.5625 C-49.73071292 16.05236138 -48.42493435 15.75779198 -46 15 C-42.42017229 13.909127 -38.99715909 13.79815839 -35.265625 13.68359375 C-33.97011719 13.64169922 -32.67460937 13.59980469 -31.33984375 13.55664062 C-29.97656524 13.51683329 -28.61328394 13.47712094 -27.25 13.4375 C-25.87108125 13.39427726 -24.49217474 13.35066179 -23.11328125 13.30664062 C-19.7422881 13.20056042 -16.37122174 13.0985015 -13 13 C-13.495 9.04 -13.495 9.04 -14 5 C-13.01 5 -12.02 5 -11 5 C-10.34 5.99 -9.68 6.98 -9 8 C-6.94074861 8.72382467 -6.94074861 8.72382467 -5 9 C-4.731875 7.88625 -4.46375 6.7725 -4.1875 5.625 C-3 2 -3 2 0 0 Z " fill="#323232" transform="translate(287,174)"/>
<path d="M0 0 C0.67667998 1.24460783 1.34094719 2.49596896 2 3.75 C2.37125 4.44609375 2.7425 5.1421875 3.125 5.859375 C4 8 4 8 4 12 C-29.33 12 -62.66 12 -97 12 C-96.67 11.01 -96.34 10.02 -96 9 C-96 9.66 -96 10.32 -96 11 C-84.57797653 10.89256146 -73.15601714 10.77994084 -61.73411083 10.66066074 C-56.43075335 10.60544104 -51.12739034 10.55202249 -45.82397461 10.50268555 C-40.70814975 10.45502804 -35.59239254 10.40268461 -30.47664833 10.34705925 C-28.5225931 10.326642 -26.56851932 10.30792788 -24.61443138 10.29092598 C-21.88245297 10.26686811 -19.15060256 10.23681531 -16.41870117 10.20532227 C-15.60662201 10.1995668 -14.79454285 10.19381134 -13.95785522 10.18788147 C-10.72084989 10.14532472 -8.09227688 10.03075896 -5 9 C-5.495 8.01 -5.495 8.01 -6 7 C-17.22 6.67 -28.44 6.34 -40 6 C-40 5.67 -40 5.34 -40 5 C-28.78 5 -17.56 5 -6 5 C-5.67 3.68 -5.34 2.36 -5 1 C-3 0 -3 0 0 0 Z " fill="#4A4A4A" transform="translate(327,182)"/>
<path d="M0 0 C2.375 0.8125 2.375 0.8125 3.375 2.8125 C3.44681821 5.53010108 3.46799506 8.22109388 3.4375 10.9375 C3.43298828 11.69160156 3.42847656 12.44570312 3.42382812 13.22265625 C3.41203499 15.08597127 3.39409942 16.94924555 3.375 18.8125 C0.405 18.8125 -2.565 18.8125 -5.625 18.8125 C-5.7059313 16.20771117 -5.76545434 13.60543347 -5.8125 11 C-5.85020508 9.89301758 -5.85020508 9.89301758 -5.88867188 8.76367188 C-5.96257664 3.3193542 -5.96257664 3.3193542 -4.27734375 0.7890625 C-2.625 -0.1875 -2.625 -0.1875 0 0 Z " fill="#F4F4F4" transform="translate(199.625,125.1875)"/>
<path d="M0 0 C-1.03516568 5.88409964 -2.24268982 12.18671376 -6 17 C-8.0703125 17.78125 -8.0703125 17.78125 -10 18 C-11 17 -11 17 -11.375 14.5 C-10.85883031 9.68241623 -8.92768249 5.8522138 -6 2 C-3.81188757 0.64704499 -2.57394047 0 0 0 Z " fill="#3A3A3A" transform="translate(253,157)"/>
<path d="M0 0 C3.18369762 3.86591853 5.40905986 8.22373715 7.75 12.625 C8.17410156 13.40101563 8.59820312 14.17703125 9.03515625 14.9765625 C9.43089844 15.7190625 9.82664062 16.4615625 10.234375 17.2265625 C10.59756836 17.90283691 10.96076172 18.57911133 11.33496094 19.27587891 C11.55442383 19.84483887 11.77388672 20.41379883 12 21 C11.67 21.66 11.34 22.32 11 23 C10.01 22.67 9.02 22.34 8 22 C8 21.34 8 20.68 8 20 C7.01 19.67 6.02 19.34 5 19 C4.67 17.35 4.34 15.7 4 14 C3.34 14 2.68 14 2 14 C1.67 14.66 1.34 15.32 1 16 C-1.20399168 11.44508386 -1.58846263 6.97093824 -2 2 C-1.34 2 -0.68 2 0 2 C0 1.34 0 0.68 0 0 Z " fill="#474647" transform="translate(306,144)"/>
<path d="M0 0 C0.94875 0.350625 1.8975 0.70125 2.875 1.0625 C2.689375 1.7225 2.50375 2.3825 2.3125 3.0625 C1.74472692 6.95580114 2.28218293 10.17625479 2.875 14.0625 C2.2975 13.876875 1.72 13.69125 1.125 13.5 C-1.34988597 13.01877217 -2.73485476 13.38462267 -5.125 14.0625 C-5.04121094 13.38703125 -4.95742188 12.7115625 -4.87109375 12.015625 C-4.76925781 11.12359375 -4.66742188 10.2315625 -4.5625 9.3125 C-4.45808594 8.43078125 -4.35367187 7.5490625 -4.24609375 6.640625 C-4.13043324 4.17817549 -4.38861305 2.39711936 -5.125 0.0625 C-3.125 -0.9375 -3.125 -0.9375 0 0 Z " fill="#363536" transform="translate(303.125,140.9375)"/>
<path d="M0 0 C0.33 0.99 0.66 1.98 1 3 C1.66 3 2.32 3 3 3 C3.40992188 3.84304687 3.81984375 4.68609375 4.2421875 5.5546875 C4.78101563 6.65039062 5.31984375 7.74609375 5.875 8.875 C6.40867187 9.96554688 6.94234375 11.05609375 7.4921875 12.1796875 C8.84535937 15.03882547 8.84535937 15.03882547 11 17 C8.0625 16.625 8.0625 16.625 5 16 C4.67 15.34 4.34 14.68 4 14 C3.67 13.67 3.34 13.34 3 13 C2.34 13.66 1.68 14.32 1 15 C-1.48822884 11.81506708 -2.23088402 9.75287801 -1.75 5.8125 C-1 2 -1 2 0 0 Z " fill="#484848" transform="translate(271,166)"/>
<path d="M0 0 C0 2.64 0 5.28 0 8 C-0.99 8.495 -0.99 8.495 -2 9 C-1.9071875 10.175625 -1.9071875 10.175625 -1.8125 11.375 C-1.874375 12.24125 -1.93625 13.1075 -2 14 C-2.99 14.66 -3.98 15.32 -5 16 C-5 14.35 -5 12.7 -5 11 C-5.66 10.67 -6.32 10.34 -7 10 C-6.4454626 6.67277559 -5.75986957 3.8986087 -4 1 C-2 0 -2 0 0 0 Z " fill="#353434" transform="translate(263,135)"/>
<path d="M0 0 C2.64 0.33 5.28 0.66 8 1 C6.43089051 5.31505111 4.30196072 9.04350501 2 13 C1.3197633 14.32646156 0.64507739 15.65608877 0 17 C-0.33 15.02 -0.66 13.04 -1 11 C-0.01 11 0.98 11 2 11 C2 8.36 2 5.72 2 3 C1.01 3.33 0.02 3.66 -1 4 C-0.67 2.68 -0.34 1.36 0 0 Z " fill="#545454" transform="translate(261,132)"/>
<path d="M0 0 C2.475 0.495 2.475 0.495 5 1 C4.01 1.495 4.01 1.495 3 2 C3.33 3.32 3.66 4.64 4 6 C5.65 6.33 7.3 6.66 9 7 C9 7.66 9 8.32 9 9 C9.66 9.33 10.32 9.66 11 10 C11 10.66 11 11.32 11 12 C9.35 12.33 7.7 12.66 6 13 C0.44419134 4.738041 0.44419134 4.738041 0 0 Z " fill="#3A393B" transform="translate(307,157)"/>
<path d="M0 0 C0.99 0.33 1.98 0.66 3 1 C3 2.98 3 4.96 3 7 C2.34 7 1.68 7 1 7 C0.67 7.66 0.34 8.32 0 9 C-1.76462683 5.91190305 -2 4.76687864 -2 1 C-1.34 0.67 -0.68 0.34 0 0 Z " fill="#373636" transform="translate(268,165)"/>
<path d="M0 0 C0 1.98 0 3.96 0 6 C-1.98 6.33 -3.96 6.66 -6 7 C-5.39816251 4.97954558 -4.72693904 2.97888961 -4 1 C-2 0 -2 0 0 0 Z " fill="#3D3C3C" transform="translate(263,135)"/>
<path d="M0 0 C0.99 0.66 1.98 1.32 3 2 C1.75 4.5 1.75 4.5 0 7 C-1.32 7 -2.64 7 -4 7 C-3.6875 4.625 -3.6875 4.625 -3 2 C-2.01 1.34 -1.02 0.68 0 0 Z " fill="#333333" transform="translate(277,107)"/>
<path d="M0 0 C1.5625 1.8125 1.5625 1.8125 3 4 C2.67 4.99 2.34 5.98 2 7 C1.38125 6.814375 0.7625 6.62875 0.125 6.4375 C-2.04160178 5.76313824 -2.04160178 5.76313824 -4 7 C-4.33 6.01 -4.66 5.02 -5 4 C-4.360625 3.71125 -3.72125 3.4225 -3.0625 3.125 C-0.84793921 2.17176549 -0.84793921 2.17176549 0 0 Z " fill="#484848" transform="translate(293,120)"/>
<path d="M0 0 C0.66 0.33 1.32 0.66 2 1 C2.1953125 7.0546875 2.1953125 7.0546875 2 9 C1.34 9.66 0.68 10.32 0 11 C-1 8 -1 8 0 5 C-0.66 5 -1.32 5 -2 5 C-2 3.68 -2 2.36 -2 1 C-1.34 0.67 -0.68 0.34 0 0 Z " fill="#383939" transform="translate(270,118)"/>
<path d="M0 0 C3 3 3 3 4 6 C2.35 6.33 0.7 6.66 -1 7 C-1.625 5.1875 -1.625 5.1875 -2 3 C-1.34 2.01 -0.68 1.02 0 0 Z " fill="#313133" transform="translate(314,163)"/>
<path d="M0 0 C0.66 0.66 1.32 1.32 2 2 C0.75 4.5 0.75 4.5 -1 7 C-2.32 7 -3.64 7 -5 7 C-4.34 6.01 -3.68 5.02 -3 4 C-2.67 3.34 -2.34 2.68 -2 2 C-1.34 1.34 -0.68 0.68 0 0 Z " fill="#3A3A3A" transform="translate(121,183)"/>
<path d="M0 0 C0.66 0.99 1.32 1.98 2 3 C1.34 3 0.68 3 0 3 C0.33 3.99 0.66 4.98 1 6 C0.34 6 -0.32 6 -1 6 C-1.28875 6.639375 -1.5775 7.27875 -1.875 7.9375 C-3 10 -3 10 -5 11 C-3.77472971 6.94718288 -2.30119506 3.55639236 0 0 Z " fill="#4A4A4A" transform="translate(236,180)"/>
<path d="M0 0 C0.99 0.66 1.98 1.32 3 2 C2.34 2 1.68 2 1 2 C0.71125 2.78375 0.4225 3.5675 0.125 4.375 C-1 7 -1 7 -3 9 C-3.75 7.3125 -3.75 7.3125 -4 5 C-2.0625 2.25 -2.0625 2.25 0 0 Z " fill="#4E4C4D" transform="translate(302,153)"/>
<path d="M0 0 C1.65 0.33 3.3 0.66 5 1 C2.60490662 3.89932357 0.68754757 4.50168276 -3 5 C-2.34 4.67 -1.68 4.34 -1 4 C-0.34786708 1.97536745 -0.34786708 1.97536745 0 0 Z " fill="#424041" transform="translate(209,186)"/>
<path d="M0 0 C1.98 0.495 1.98 0.495 4 1 C3.34 2.32 2.68 3.64 2 5 C1.01 5 0.02 5 -1 5 C-0.67 3.35 -0.34 1.7 0 0 Z " fill="#302F2F" transform="translate(243,169)"/>
<path d="M0 0 C0.66 1.32 1.32 2.64 2 4 C1.01 3.67 0.02 3.34 -1 3 C-1.33 3.99 -1.66 4.98 -2 6 C-2.99 5.67 -3.98 5.34 -5 5 C-4.67 4.01 -4.34 3.02 -4 2 C-2.68 2 -1.36 2 0 2 C0 1.34 0 0.68 0 0 Z " fill="#474748" transform="translate(318,167)"/>
<path d="M0 0 C0.66 0 1.32 0 2 0 C2.625 2.875 2.625 2.875 3 6 C2.34 6.66 1.68 7.32 1 8 C1 7.01 1 6.02 1 5 C0.34 5 -0.32 5 -1 5 C-0.67 3.35 -0.34 1.7 0 0 Z " fill="#302F30" transform="translate(237,180)"/>
</svg>
